<svg width="40" height="40" viewBox="0 0 40 40" fill="none" xmlns="http://www.w3.org/2000/svg">
<g opacity="0.5">
<mask id="path-1-inside-1_745_197" fill="white">
<path d="M20.817 36.3299C20.6573 36.25 20.5242 36.1968 20.3645 36.117C20.2846 36.0903 20.2048 36.0637 20.1249 36.0105C20.0451 35.9839 19.9652 35.9573 19.8854 35.9306C19.566 35.8242 19.2466 35.7443 18.9272 35.6645C18.6344 35.5846 18.3682 35.5314 18.102 35.4515C17.8625 35.3983 17.6229 35.3451 17.3834 35.2918C17.0374 34.2804 16.6913 32.8431 16.0792 32.2575C15.3605 31.5655 14.1627 31.0065 13.1247 30.7936C13.3908 31.7252 14.0297 33.1092 14.7483 33.8013C15.2274 34.2538 15.9993 34.6796 16.6647 35.1055C15.813 34.9458 13.7901 34.3869 13.2311 34.0941C13.1513 33.0028 13.2311 31.5655 12.8053 30.8202C12.2996 29.9685 11.2881 29.0901 10.3565 28.611C10.3565 29.5692 10.5961 31.0864 11.0752 31.9647C11.3946 32.5237 12.0334 33.1625 12.5657 33.7481C12.06 33.4287 10.3299 32.2309 9.10552 31.1662C9.39831 30.1282 9.87741 28.8239 9.71771 27.9988C9.53139 27.014 8.83935 25.8961 8.12069 25.0975C7.80129 26.0025 7.53512 27.5197 7.72144 28.5045C7.85452 29.1433 8.25378 29.9418 8.57318 30.6605C7.98761 30.0483 6.60353 28.4247 6.33736 27.8657C6.89631 26.9341 7.77467 25.7896 7.85452 24.9378C7.93437 23.953 7.58835 22.6754 7.10925 21.7172C6.55029 22.4891 5.88487 23.8998 5.80502 24.8846C5.75178 25.5234 5.91149 26.4018 6.01795 27.2003C5.7784 26.6413 5.03313 24.5918 4.60726 23.0214C5.40576 22.2762 6.63014 21.3978 6.92293 20.6259C7.26895 19.6943 7.26895 18.3635 7.05602 17.3254C6.31074 17.9376 5.2993 19.1087 4.95328 20.0403C4.74034 20.6525 4.66049 21.5309 4.55402 22.3294C4.3677 21.4776 4.23462 20.6259 4.18138 19.7742C4.15477 19.1354 4.15477 18.4965 4.208 17.8577C5.16621 17.352 6.52368 16.8197 7.0294 16.1276C7.61497 15.3291 7.98761 14.0515 8.06746 12.9868C7.1891 13.3595 5.88487 14.2112 5.32591 15.0097C4.95328 15.5421 4.63387 16.3672 4.31447 17.0858C4.39432 16.447 4.5274 15.8082 4.68711 15.1694C4.74034 14.9831 4.79357 14.7968 4.84681 14.6105C4.90004 14.4242 4.95328 14.2378 5.03313 14.0515C5.16621 13.6789 5.2993 13.3329 5.48561 12.9868C5.56547 12.8005 5.67193 12.6142 5.7784 12.4279C6.8697 12.2948 8.30701 12.2948 9.02567 11.8423C9.85079 11.31 10.6759 10.2453 11.1284 9.28708C10.1702 9.3137 8.65303 9.6331 7.82791 10.1654C7.32218 10.4848 6.78985 11.0704 6.28412 11.6028C6.41721 11.3898 6.55029 11.1769 6.68338 10.9906C7.37542 10.0057 8.17393 9.12738 9.02567 8.30226C10.0903 8.38211 11.6075 8.70151 12.406 8.40872C13.2844 8.0627 14.2692 7.23758 14.8814 6.43907C13.9764 6.27937 12.4859 6.27937 11.6075 6.62539C10.9421 6.89156 10.1436 7.50375 9.42492 7.95624C9.55801 7.82315 9.71771 7.71668 9.85079 7.5836C10.9421 6.67862 12.0866 5.82688 13.311 5.10822C14.1095 5.34777 15.0145 5.32116 15.813 4.9219C16.6647 4.49603 17.2769 3.75076 17.7826 2.84578C16.8777 2.68608 15.7864 2.68608 14.9346 3.11195C14.1095 3.51121 13.5239 4.17663 13.2045 4.94852C12.619 5.24131 12.0866 5.56071 11.5277 5.90673C11.155 6.14628 10.7558 6.41245 10.4097 6.67862C10.9953 6.11967 11.6874 5.53409 12.06 5.00175C12.5923 4.20325 12.9384 2.76593 12.9916 1.86095C12.06 2.28683 11.0219 3.0321 10.4896 3.80399C9.98388 4.52265 9.98388 6.06643 9.79756 7.13111C9.71771 7.18434 9.66448 7.23758 9.58463 7.29081C8.62642 8.0627 7.74806 8.91444 6.94955 9.84604C7.42865 9.07415 8.20054 8.14255 8.49333 7.37066C8.86597 6.43907 8.89258 4.89529 8.73288 3.96369C7.88114 4.6025 7.00278 5.58733 6.63014 6.51892C6.28412 7.39728 6.65676 9.04753 6.68338 10.1654C6.52368 10.3518 6.39059 10.5381 6.25751 10.7244C5.83164 11.31 5.459 11.8955 5.1396 12.5343C5.32591 11.9222 5.48562 11.31 5.53885 10.8042C5.6187 9.76619 5.13959 8.24902 4.68711 7.37066C4.0483 8.27564 3.51596 9.52663 3.43611 10.5381C3.38288 11.4431 4.12815 12.7739 4.55402 13.8386V13.8652C4.47417 14.0515 4.42094 14.2378 4.3677 14.4242C4.31447 14.6105 4.26124 14.7968 4.18138 15.0097C4.02168 15.6219 3.86198 16.2341 3.78213 16.8463C3.78213 16.1276 3.78213 15.409 3.64905 14.85C3.40949 13.812 2.4779 12.4545 1.78586 11.7092C1.41322 12.7739 1.25352 14.1846 1.49307 15.2227C1.70601 16.1543 2.87715 17.2722 3.62243 18.2038C3.59581 18.7361 3.5692 19.2418 3.59581 19.7742C3.62243 20.2533 3.64905 20.7324 3.7289 21.2381C3.48934 20.5461 3.24979 19.8274 2.95701 19.3217C2.39805 18.4167 1.09382 17.4319 0.188843 16.9528C0.188843 18.0707 0.481629 19.4548 1.04059 20.3597C1.51969 21.1582 2.95701 21.8237 3.94183 22.4359C4.02168 22.8351 4.12815 23.3408 4.23462 23.7135C4.39432 24.3523 4.66049 25.2839 5.11298 26.4018C4.74034 25.7896 4.3677 25.1774 3.96845 24.7781C3.22317 24.0063 1.73263 23.3408 0.747799 23.048C0.987351 24.1393 1.57292 25.4436 2.3182 26.2155C2.98362 26.9075 4.58064 27.2535 5.67193 27.6528C5.91149 28.1319 6.17766 28.5844 6.47044 29.0102C6.73661 29.4095 7.0294 29.8087 7.32218 30.1814C6.76323 29.7023 6.17766 29.2232 5.67193 28.957C4.74034 28.4779 3.09009 28.3182 2.07865 28.3714C2.66422 29.3296 3.64905 30.3677 4.58064 30.8468C5.40576 31.2727 6.97616 31.113 8.14731 31.1396C8.49333 31.3259 8.81273 31.7252 9.18537 31.9647C9.66448 32.3906 10.4097 33.0028 11.3946 33.6416C10.7558 33.3488 10.0903 33.056 9.53139 32.9495C8.49333 32.7366 6.8697 33.0294 5.91149 33.3754C6.73661 34.1473 7.96099 34.866 8.99905 35.0789C9.93064 35.2652 11.4478 34.653 12.5923 34.3602C13.0448 34.5998 13.5239 34.8394 14.0297 35.0257C14.4821 35.212 14.9346 35.3717 15.4137 35.5048C14.6951 35.4249 13.9232 35.3717 13.3376 35.4249C12.2996 35.558 10.8356 36.3565 10.0371 36.9953C11.0752 37.4478 12.4593 37.7406 13.4973 37.6075C14.4289 37.4744 15.6267 36.463 16.5849 35.7976C16.6381 35.7976 16.6647 35.8242 16.718 35.8242C16.7978 35.8508 16.8511 35.8508 16.9309 35.8774C17.5697 36.0371 18.1819 36.1968 18.7941 36.3565C19.1135 36.4364 19.4063 36.5162 19.6991 36.6227C19.7789 36.6493 19.8321 36.6759 19.912 36.7025C19.9652 36.7292 20.0717 36.7558 20.1249 36.7824C20.258 36.8356 20.4177 36.9155 20.5508 36.9687C21.0831 37.2615 21.5889 37.6075 22.0414 38.0334C22.068 38.06 22.0946 38.0866 22.1478 38.1399L22.2011 37.1816C21.722 36.8356 21.2695 36.5695 20.817 36.3299Z"/>
</mask>
<path d="M20.817 36.3299C20.6573 36.25 20.5242 36.1968 20.3645 36.117C20.2846 36.0903 20.2048 36.0637 20.1249 36.0105C20.0451 35.9839 19.9652 35.9573 19.8854 35.9306C19.566 35.8242 19.2466 35.7443 18.9272 35.6645C18.6344 35.5846 18.3682 35.5314 18.102 35.4515C17.8625 35.3983 17.6229 35.3451 17.3834 35.2918C17.0374 34.2804 16.6913 32.8431 16.0792 32.2575C15.3605 31.5655 14.1627 31.0065 13.1247 30.7936C13.3908 31.7252 14.0297 33.1092 14.7483 33.8013C15.2274 34.2538 15.9993 34.6796 16.6647 35.1055C15.813 34.9458 13.7901 34.3869 13.2311 34.0941C13.1513 33.0028 13.2311 31.5655 12.8053 30.8202C12.2996 29.9685 11.2881 29.0901 10.3565 28.611C10.3565 29.5692 10.5961 31.0864 11.0752 31.9647C11.3946 32.5237 12.0334 33.1625 12.5657 33.7481C12.06 33.4287 10.3299 32.2309 9.10552 31.1662C9.39831 30.1282 9.87741 28.8239 9.71771 27.9988C9.53139 27.014 8.83935 25.8961 8.12069 25.0975C7.80129 26.0025 7.53512 27.5197 7.72144 28.5045C7.85452 29.1433 8.25378 29.9418 8.57318 30.6605C7.98761 30.0483 6.60353 28.4247 6.33736 27.8657C6.89631 26.9341 7.77467 25.7896 7.85452 24.9378C7.93437 23.953 7.58835 22.6754 7.10925 21.7172C6.55029 22.4891 5.88487 23.8998 5.80502 24.8846C5.75178 25.5234 5.91149 26.4018 6.01795 27.2003C5.7784 26.6413 5.03313 24.5918 4.60726 23.0214C5.40576 22.2762 6.63014 21.3978 6.92293 20.6259C7.26895 19.6943 7.26895 18.3635 7.05602 17.3254C6.31074 17.9376 5.2993 19.1087 4.95328 20.0403C4.74034 20.6525 4.66049 21.5309 4.55402 22.3294C4.3677 21.4776 4.23462 20.6259 4.18138 19.7742C4.15477 19.1354 4.15477 18.4965 4.208 17.8577C5.16621 17.352 6.52368 16.8197 7.0294 16.1276C7.61497 15.3291 7.98761 14.0515 8.06746 12.9868C7.1891 13.3595 5.88487 14.2112 5.32591 15.0097C4.95328 15.5421 4.63387 16.3672 4.31447 17.0858C4.39432 16.447 4.5274 15.8082 4.68711 15.1694C4.74034 14.9831 4.79357 14.7968 4.84681 14.6105C4.90004 14.4242 4.95328 14.2378 5.03313 14.0515C5.16621 13.6789 5.2993 13.3329 5.48561 12.9868C5.56547 12.8005 5.67193 12.6142 5.7784 12.4279C6.8697 12.2948 8.30701 12.2948 9.02567 11.8423C9.85079 11.31 10.6759 10.2453 11.1284 9.28708C10.1702 9.3137 8.65303 9.6331 7.82791 10.1654C7.32218 10.4848 6.78985 11.0704 6.28412 11.6028C6.41721 11.3898 6.55029 11.1769 6.68338 10.9906C7.37542 10.0057 8.17393 9.12738 9.02567 8.30226C10.0903 8.38211 11.6075 8.70151 12.406 8.40872C13.2844 8.0627 14.2692 7.23758 14.8814 6.43907C13.9764 6.27937 12.4859 6.27937 11.6075 6.62539C10.9421 6.89156 10.1436 7.50375 9.42492 7.95624C9.55801 7.82315 9.71771 7.71668 9.85079 7.5836C10.9421 6.67862 12.0866 5.82688 13.311 5.10822C14.1095 5.34777 15.0145 5.32116 15.813 4.9219C16.6647 4.49603 17.2769 3.75076 17.7826 2.84578C16.8777 2.68608 15.7864 2.68608 14.9346 3.11195C14.1095 3.51121 13.5239 4.17663 13.2045 4.94852C12.619 5.24131 12.0866 5.56071 11.5277 5.90673C11.155 6.14628 10.7558 6.41245 10.4097 6.67862C10.9953 6.11967 11.6874 5.53409 12.06 5.00175C12.5923 4.20325 12.9384 2.76593 12.9916 1.86095C12.06 2.28683 11.0219 3.0321 10.4896 3.80399C9.98388 4.52265 9.98388 6.06643 9.79756 7.13111C9.71771 7.18434 9.66448 7.23758 9.58463 7.29081C8.62642 8.0627 7.74806 8.91444 6.94955 9.84604C7.42865 9.07415 8.20054 8.14255 8.49333 7.37066C8.86597 6.43907 8.89258 4.89529 8.73288 3.96369C7.88114 4.6025 7.00278 5.58733 6.63014 6.51892C6.28412 7.39728 6.65676 9.04753 6.68338 10.1654C6.52368 10.3518 6.39059 10.5381 6.25751 10.7244C5.83164 11.31 5.459 11.8955 5.1396 12.5343C5.32591 11.9222 5.48562 11.31 5.53885 10.8042C5.6187 9.76619 5.13959 8.24902 4.68711 7.37066C4.0483 8.27564 3.51596 9.52663 3.43611 10.5381C3.38288 11.4431 4.12815 12.7739 4.55402 13.8386V13.8652C4.47417 14.0515 4.42094 14.2378 4.3677 14.4242C4.31447 14.6105 4.26124 14.7968 4.18138 15.0097C4.02168 15.6219 3.86198 16.2341 3.78213 16.8463C3.78213 16.1276 3.78213 15.409 3.64905 14.85C3.40949 13.812 2.4779 12.4545 1.78586 11.7092C1.41322 12.7739 1.25352 14.1846 1.49307 15.2227C1.70601 16.1543 2.87715 17.2722 3.62243 18.2038C3.59581 18.7361 3.5692 19.2418 3.59581 19.7742C3.62243 20.2533 3.64905 20.7324 3.7289 21.2381C3.48934 20.5461 3.24979 19.8274 2.95701 19.3217C2.39805 18.4167 1.09382 17.4319 0.188843 16.9528C0.188843 18.0707 0.481629 19.4548 1.04059 20.3597C1.51969 21.1582 2.95701 21.8237 3.94183 22.4359C4.02168 22.8351 4.12815 23.3408 4.23462 23.7135C4.39432 24.3523 4.66049 25.2839 5.11298 26.4018C4.74034 25.7896 4.3677 25.1774 3.96845 24.7781C3.22317 24.0063 1.73263 23.3408 0.747799 23.048C0.987351 24.1393 1.57292 25.4436 2.3182 26.2155C2.98362 26.9075 4.58064 27.2535 5.67193 27.6528C5.91149 28.1319 6.17766 28.5844 6.47044 29.0102C6.73661 29.4095 7.0294 29.8087 7.32218 30.1814C6.76323 29.7023 6.17766 29.2232 5.67193 28.957C4.74034 28.4779 3.09009 28.3182 2.07865 28.3714C2.66422 29.3296 3.64905 30.3677 4.58064 30.8468C5.40576 31.2727 6.97616 31.113 8.14731 31.1396C8.49333 31.3259 8.81273 31.7252 9.18537 31.9647C9.66448 32.3906 10.4097 33.0028 11.3946 33.6416C10.7558 33.3488 10.0903 33.056 9.53139 32.9495C8.49333 32.7366 6.8697 33.0294 5.91149 33.3754C6.73661 34.1473 7.96099 34.866 8.99905 35.0789C9.93064 35.2652 11.4478 34.653 12.5923 34.3602C13.0448 34.5998 13.5239 34.8394 14.0297 35.0257C14.4821 35.212 14.9346 35.3717 15.4137 35.5048C14.6951 35.4249 13.9232 35.3717 13.3376 35.4249C12.2996 35.558 10.8356 36.3565 10.0371 36.9953C11.0752 37.4478 12.4593 37.7406 13.4973 37.6075C14.4289 37.4744 15.6267 36.463 16.5849 35.7976C16.6381 35.7976 16.6647 35.8242 16.718 35.8242C16.7978 35.8508 16.8511 35.8508 16.9309 35.8774C17.5697 36.0371 18.1819 36.1968 18.7941 36.3565C19.1135 36.4364 19.4063 36.5162 19.6991 36.6227C19.7789 36.6493 19.8321 36.6759 19.912 36.7025C19.9652 36.7292 20.0717 36.7558 20.1249 36.7824C20.258 36.8356 20.4177 36.9155 20.5508 36.9687C21.0831 37.2615 21.5889 37.6075 22.0414 38.0334C22.068 38.06 22.0946 38.0866 22.1478 38.1399L22.2011 37.1816C21.722 36.8356 21.2695 36.5695 20.817 36.3299Z" stroke="black" stroke-width="0.447254" mask="url(#path-1-inside-1_745_197)"/>
</g>
<path d="M19.367 25.1439C18.655 25.1439 18.023 24.9599 17.471 24.5919C16.919 24.2239 16.539 23.7199 16.331 23.0799L17.327 22.6719C17.495 23.1119 17.759 23.4599 18.119 23.7159C18.479 23.9639 18.895 24.0879 19.367 24.0879C19.935 24.0879 20.395 23.9279 20.747 23.6079C21.099 23.2799 21.275 22.8319 21.275 22.2639C21.275 21.6959 21.095 21.2519 20.735 20.9319C20.383 20.6039 19.923 20.4399 19.355 20.4399C19.115 20.4399 18.867 20.4719 18.611 20.5359L18.359 19.9959L20.747 17.0799H16.787V16.0599H22.079V17.0439L20.039 19.5639C20.759 19.6519 21.339 19.9399 21.779 20.4279C22.227 20.9079 22.451 21.5119 22.451 22.2399C22.451 22.7759 22.319 23.2679 22.055 23.7159C21.791 24.1559 21.423 24.5039 20.951 24.7599C20.487 25.0159 19.959 25.1439 19.367 25.1439Z" fill="black"/>
<g opacity="0.5">
<mask id="path-3-inside-2_745_197" fill="white">
<path d="M18.7414 36.3293C18.9011 36.2494 19.0342 36.1962 19.1939 36.1163C19.2737 36.0897 19.3536 36.0631 19.4334 36.0099C19.5133 35.9832 19.5931 35.9566 19.673 35.93C19.9924 35.8235 20.3118 35.7437 20.6312 35.6638C20.924 35.584 21.1901 35.5308 21.4563 35.4509C21.6959 35.3977 21.9354 35.3444 22.175 35.2912C22.521 34.2798 22.867 32.8424 23.4792 32.2569C24.1979 31.5648 25.3956 31.0059 26.4337 30.7929C26.1675 31.7245 25.5287 33.1086 24.81 33.8007C24.3309 34.2531 23.559 34.679 22.8936 35.1049C23.7454 34.9452 25.7683 34.3862 26.3272 34.0934C26.4071 33.0021 26.3272 31.5648 26.7531 30.8196C27.2588 29.9678 28.2702 29.0895 29.2018 28.6104C29.2018 29.5686 28.9623 31.0857 28.4832 31.9641C28.1638 32.523 27.525 33.1618 26.9926 33.7474C27.4984 33.428 29.2285 32.2303 30.4528 31.1656C30.16 30.1275 29.6809 28.8233 29.8406 27.9982C30.027 27.0133 30.719 25.8954 31.4377 25.0969C31.7571 26.0019 32.0232 27.5191 31.8369 28.5039C31.7038 29.1427 31.3046 29.9412 30.9852 30.6599C31.5707 30.0477 32.9548 28.424 33.221 27.8651C32.662 26.9335 31.7837 25.789 31.7038 24.9372C31.624 23.9524 31.97 22.6748 32.4491 21.7166C33.0081 22.4885 33.6735 23.8992 33.7533 24.884C33.8066 25.5228 33.6469 26.4011 33.5404 27.1997C33.78 26.6407 34.5252 24.5912 34.9511 23.0208C34.1526 22.2755 32.9282 21.3972 32.6354 20.6253C32.2894 19.6937 32.2894 18.3628 32.5023 17.3248C33.2476 17.937 34.2591 19.1081 34.6051 20.0397C34.818 20.6519 34.8979 21.5302 35.0043 22.3288C35.1907 21.477 35.3237 20.6253 35.377 19.7735C35.4036 19.1347 35.4036 18.4959 35.3504 17.8571C34.3921 17.3514 33.0347 16.819 32.529 16.127C31.9434 15.3285 31.5707 14.0509 31.4909 12.9862C32.3693 13.3588 33.6735 14.2106 34.2324 15.0091C34.6051 15.5414 34.9245 16.3666 35.2439 17.0852C35.164 16.4464 35.0309 15.8076 34.8712 15.1688C34.818 14.9825 34.7648 14.7962 34.7115 14.6098C34.6583 14.4235 34.6051 14.2372 34.5252 14.0509C34.3921 13.6782 34.2591 13.3322 34.0727 12.9862C33.9929 12.7999 33.8864 12.6136 33.78 12.4272C32.6887 12.2942 31.2513 12.2942 30.5327 11.8417C29.7076 11.3093 28.8824 10.2447 28.4299 9.28645C29.3882 9.31307 30.9053 9.63247 31.7304 10.1648C32.2362 10.4842 32.7685 11.0698 33.2742 11.6021C33.1411 11.3892 33.0081 11.1763 32.875 10.9899C32.1829 10.0051 31.3844 9.12675 30.5327 8.30162C29.468 8.38147 27.9508 8.70088 27.1523 8.40809C26.274 8.06207 25.2891 7.23694 24.677 6.43844C25.5819 6.27873 27.0725 6.27873 27.9508 6.62475C28.6163 6.89092 29.4148 7.50311 30.1334 7.9556C30.0003 7.82252 29.8406 7.71605 29.7076 7.58296C28.6163 6.67799 27.4717 5.82625 26.2474 5.10759C25.4489 5.34714 24.5439 5.32052 23.7454 4.92127C22.8936 4.4954 22.2814 3.75012 21.7757 2.84515C22.6807 2.68545 23.772 2.68545 24.6237 3.11132C25.4488 3.51057 26.0344 4.176 26.3538 4.94789C26.9394 5.24067 27.4717 5.56008 28.0307 5.9061C28.4033 6.14565 28.8026 6.41182 29.1486 6.67799C28.563 6.11903 27.871 5.53346 27.4984 5.00112C26.966 4.20261 26.62 2.7653 26.5668 1.86032C27.4984 2.28619 28.5364 3.03147 29.0688 3.80336C29.5745 4.52202 29.5745 6.0658 29.7608 7.13048C29.8406 7.18371 29.8939 7.23694 29.9737 7.29018C30.9319 8.06207 31.8103 8.91381 32.6088 9.8454C32.1297 9.07351 31.3578 8.14192 31.065 7.37003C30.6924 6.43844 30.6658 4.89465 30.8255 3.96306C31.6772 4.60187 32.5556 5.58669 32.9282 6.51829C33.2742 7.39665 32.9016 9.0469 32.875 10.1648C33.0347 10.3511 33.1678 10.5374 33.3008 10.7238C33.7267 11.3093 34.0994 11.8949 34.4188 12.5337C34.2324 11.9215 34.0727 11.3093 34.0195 10.8036C33.9397 9.76555 34.4188 8.24839 34.8712 7.37003C35.5101 8.27501 36.0424 9.526 36.1222 10.5374C36.1755 11.4424 35.4302 12.7733 35.0043 13.8379V13.8646C35.0842 14.0509 35.1374 14.2372 35.1906 14.4235C35.2439 14.6098 35.2971 14.7962 35.377 15.0091C35.5367 15.6213 35.6964 16.2335 35.7762 16.8457C35.7762 16.127 35.7762 15.4083 35.9093 14.8494C36.1489 13.8113 37.0805 12.4539 37.7725 11.7086C38.1451 12.7733 38.3048 14.184 38.0653 15.222C37.8523 16.1536 36.6812 17.2715 35.9359 18.2031C35.9625 18.7355 35.9892 19.2412 35.9625 19.7735C35.9359 20.2526 35.9093 20.7317 35.8295 21.2375C36.069 20.5454 36.3086 19.8268 36.6013 19.321C37.1603 18.4161 38.4645 17.4312 39.3695 16.9521C39.3695 18.07 39.0767 19.4541 38.5178 20.3591C38.0387 21.1576 36.6013 21.823 35.6165 22.4352C35.5367 22.8345 35.4302 23.3402 35.3237 23.7128C35.164 24.3516 34.8979 25.2832 34.4454 26.4011C34.818 25.789 35.1906 25.1768 35.5899 24.7775C36.3352 24.0056 37.8257 23.3402 38.8106 23.0474C38.571 24.1387 37.9854 25.4429 37.2402 26.2148C36.5747 26.9069 34.9777 27.2529 33.8864 27.6521C33.6469 28.1312 33.3807 28.5837 33.0879 29.0096C32.8217 29.4089 32.529 29.8081 32.2362 30.1808C32.7951 29.7016 33.3807 29.2225 33.8864 28.9564C34.818 28.4773 36.4683 28.3176 37.4797 28.3708C36.8941 29.329 35.9093 30.3671 34.9777 30.8462C34.1526 31.272 32.5822 31.1123 31.411 31.139C31.065 31.3253 30.7456 31.7245 30.373 31.9641C29.8939 32.39 29.1486 33.0021 28.1638 33.641C28.8026 33.3482 29.468 33.0554 30.027 32.9489C31.065 32.736 32.6887 33.0288 33.6469 33.3748C32.8217 34.1467 31.5974 34.8653 30.5593 35.0783C29.6277 35.2646 28.1105 34.6524 26.966 34.3596C26.5135 34.5992 26.0344 34.8387 25.5287 35.025C25.0762 35.2114 24.6237 35.3711 24.1446 35.5041C24.8633 35.4243 25.6352 35.3711 26.2207 35.4243C27.2588 35.5574 28.7227 36.3559 29.5212 36.9947C28.4832 37.4472 27.0991 37.74 26.061 37.6069C25.1294 37.4738 23.9317 36.4623 22.9735 35.7969C22.9202 35.7969 22.8936 35.8235 22.8404 35.8235C22.7605 35.8502 22.7073 35.8502 22.6275 35.8768C21.9886 36.0365 21.3765 36.1962 20.7643 36.3559C20.4449 36.4357 20.1521 36.5156 19.8593 36.6221C19.7794 36.6487 19.7262 36.6753 19.6464 36.7019C19.5931 36.7285 19.4867 36.7551 19.4334 36.7818C19.3003 36.835 19.1406 36.9148 19.0075 36.9681C18.4752 37.2609 17.9695 37.6069 17.517 38.0327C17.4904 38.0594 17.4638 38.086 17.4105 38.1392L17.3573 37.181C17.8364 36.835 18.2889 36.5688 18.7414 36.3293Z"/>
</mask>
<path d="M18.7414 36.3293C18.9011 36.2494 19.0342 36.1962 19.1939 36.1163C19.2737 36.0897 19.3536 36.0631 19.4334 36.0099C19.5133 35.9832 19.5931 35.9566 19.673 35.93C19.9924 35.8235 20.3118 35.7437 20.6312 35.6638C20.924 35.584 21.1901 35.5308 21.4563 35.4509C21.6959 35.3977 21.9354 35.3444 22.175 35.2912C22.521 34.2798 22.867 32.8424 23.4792 32.2569C24.1979 31.5648 25.3956 31.0059 26.4337 30.7929C26.1675 31.7245 25.5287 33.1086 24.81 33.8007C24.3309 34.2531 23.559 34.679 22.8936 35.1049C23.7454 34.9452 25.7683 34.3862 26.3272 34.0934C26.4071 33.0021 26.3272 31.5648 26.7531 30.8196C27.2588 29.9678 28.2702 29.0895 29.2018 28.6104C29.2018 29.5686 28.9623 31.0857 28.4832 31.9641C28.1638 32.523 27.525 33.1618 26.9926 33.7474C27.4984 33.428 29.2285 32.2303 30.4528 31.1656C30.16 30.1275 29.6809 28.8233 29.8406 27.9982C30.027 27.0133 30.719 25.8954 31.4377 25.0969C31.7571 26.0019 32.0232 27.5191 31.8369 28.5039C31.7038 29.1427 31.3046 29.9412 30.9852 30.6599C31.5707 30.0477 32.9548 28.424 33.221 27.8651C32.662 26.9335 31.7837 25.789 31.7038 24.9372C31.624 23.9524 31.97 22.6748 32.4491 21.7166C33.0081 22.4885 33.6735 23.8992 33.7533 24.884C33.8066 25.5228 33.6469 26.4011 33.5404 27.1997C33.78 26.6407 34.5252 24.5912 34.9511 23.0208C34.1526 22.2755 32.9282 21.3972 32.6354 20.6253C32.2894 19.6937 32.2894 18.3628 32.5023 17.3248C33.2476 17.937 34.2591 19.1081 34.6051 20.0397C34.818 20.6519 34.8979 21.5302 35.0043 22.3288C35.1907 21.477 35.3237 20.6253 35.377 19.7735C35.4036 19.1347 35.4036 18.4959 35.3504 17.8571C34.3921 17.3514 33.0347 16.819 32.529 16.127C31.9434 15.3285 31.5707 14.0509 31.4909 12.9862C32.3693 13.3588 33.6735 14.2106 34.2324 15.0091C34.6051 15.5414 34.9245 16.3666 35.2439 17.0852C35.164 16.4464 35.0309 15.8076 34.8712 15.1688C34.818 14.9825 34.7648 14.7962 34.7115 14.6098C34.6583 14.4235 34.6051 14.2372 34.5252 14.0509C34.3921 13.6782 34.2591 13.3322 34.0727 12.9862C33.9929 12.7999 33.8864 12.6136 33.78 12.4272C32.6887 12.2942 31.2513 12.2942 30.5327 11.8417C29.7076 11.3093 28.8824 10.2447 28.4299 9.28645C29.3882 9.31307 30.9053 9.63247 31.7304 10.1648C32.2362 10.4842 32.7685 11.0698 33.2742 11.6021C33.1411 11.3892 33.0081 11.1763 32.875 10.9899C32.1829 10.0051 31.3844 9.12675 30.5327 8.30162C29.468 8.38147 27.9508 8.70088 27.1523 8.40809C26.274 8.06207 25.2891 7.23694 24.677 6.43844C25.5819 6.27873 27.0725 6.27873 27.9508 6.62475C28.6163 6.89092 29.4148 7.50311 30.1334 7.9556C30.0003 7.82252 29.8406 7.71605 29.7076 7.58296C28.6163 6.67799 27.4717 5.82625 26.2474 5.10759C25.4489 5.34714 24.5439 5.32052 23.7454 4.92127C22.8936 4.4954 22.2814 3.75012 21.7757 2.84515C22.6807 2.68545 23.772 2.68545 24.6237 3.11132C25.4488 3.51057 26.0344 4.176 26.3538 4.94789C26.9394 5.24067 27.4717 5.56008 28.0307 5.9061C28.4033 6.14565 28.8026 6.41182 29.1486 6.67799C28.563 6.11903 27.871 5.53346 27.4984 5.00112C26.966 4.20261 26.62 2.7653 26.5668 1.86032C27.4984 2.28619 28.5364 3.03147 29.0688 3.80336C29.5745 4.52202 29.5745 6.0658 29.7608 7.13048C29.8406 7.18371 29.8939 7.23694 29.9737 7.29018C30.9319 8.06207 31.8103 8.91381 32.6088 9.8454C32.1297 9.07351 31.3578 8.14192 31.065 7.37003C30.6924 6.43844 30.6658 4.89465 30.8255 3.96306C31.6772 4.60187 32.5556 5.58669 32.9282 6.51829C33.2742 7.39665 32.9016 9.0469 32.875 10.1648C33.0347 10.3511 33.1678 10.5374 33.3008 10.7238C33.7267 11.3093 34.0994 11.8949 34.4188 12.5337C34.2324 11.9215 34.0727 11.3093 34.0195 10.8036C33.9397 9.76555 34.4188 8.24839 34.8712 7.37003C35.5101 8.27501 36.0424 9.526 36.1222 10.5374C36.1755 11.4424 35.4302 12.7733 35.0043 13.8379V13.8646C35.0842 14.0509 35.1374 14.2372 35.1906 14.4235C35.2439 14.6098 35.2971 14.7962 35.377 15.0091C35.5367 15.6213 35.6964 16.2335 35.7762 16.8457C35.7762 16.127 35.7762 15.4083 35.9093 14.8494C36.1489 13.8113 37.0805 12.4539 37.7725 11.7086C38.1451 12.7733 38.3048 14.184 38.0653 15.222C37.8523 16.1536 36.6812 17.2715 35.9359 18.2031C35.9625 18.7355 35.9892 19.2412 35.9625 19.7735C35.9359 20.2526 35.9093 20.7317 35.8295 21.2375C36.069 20.5454 36.3086 19.8268 36.6013 19.321C37.1603 18.4161 38.4645 17.4312 39.3695 16.9521C39.3695 18.07 39.0767 19.4541 38.5178 20.3591C38.0387 21.1576 36.6013 21.823 35.6165 22.4352C35.5367 22.8345 35.4302 23.3402 35.3237 23.7128C35.164 24.3516 34.8979 25.2832 34.4454 26.4011C34.818 25.789 35.1906 25.1768 35.5899 24.7775C36.3352 24.0056 37.8257 23.3402 38.8106 23.0474C38.571 24.1387 37.9854 25.4429 37.2402 26.2148C36.5747 26.9069 34.9777 27.2529 33.8864 27.6521C33.6469 28.1312 33.3807 28.5837 33.0879 29.0096C32.8217 29.4089 32.529 29.8081 32.2362 30.1808C32.7951 29.7016 33.3807 29.2225 33.8864 28.9564C34.818 28.4773 36.4683 28.3176 37.4797 28.3708C36.8941 29.329 35.9093 30.3671 34.9777 30.8462C34.1526 31.272 32.5822 31.1123 31.411 31.139C31.065 31.3253 30.7456 31.7245 30.373 31.9641C29.8939 32.39 29.1486 33.0021 28.1638 33.641C28.8026 33.3482 29.468 33.0554 30.027 32.9489C31.065 32.736 32.6887 33.0288 33.6469 33.3748C32.8217 34.1467 31.5974 34.8653 30.5593 35.0783C29.6277 35.2646 28.1105 34.6524 26.966 34.3596C26.5135 34.5992 26.0344 34.8387 25.5287 35.025C25.0762 35.2114 24.6237 35.3711 24.1446 35.5041C24.8633 35.4243 25.6352 35.3711 26.2207 35.4243C27.2588 35.5574 28.7227 36.3559 29.5212 36.9947C28.4832 37.4472 27.0991 37.74 26.061 37.6069C25.1294 37.4738 23.9317 36.4623 22.9735 35.7969C22.9202 35.7969 22.8936 35.8235 22.8404 35.8235C22.7605 35.8502 22.7073 35.8502 22.6275 35.8768C21.9886 36.0365 21.3765 36.1962 20.7643 36.3559C20.4449 36.4357 20.1521 36.5156 19.8593 36.6221C19.7794 36.6487 19.7262 36.6753 19.6464 36.7019C19.5931 36.7285 19.4867 36.7551 19.4334 36.7818C19.3003 36.835 19.1406 36.9148 19.0075 36.9681C18.4752 37.2609 17.9695 37.6069 17.517 38.0327C17.4904 38.0594 17.4638 38.086 17.4105 38.1392L17.3573 37.181C17.8364 36.835 18.2889 36.5688 18.7414 36.3293Z" stroke="black" stroke-width="0.447254" mask="url(#path-3-inside-2_745_197)"/>
</g>
</svg>
