<svg width="40" height="40" viewBox="0 0 40 40" fill="none" xmlns="http://www.w3.org/2000/svg">
<mask id="path-1-inside-1_745_226" fill="white">
<path d="M30.595 22.3529C32.75 21.6979 33.8697 23.5994 35.6866 21.8881C37.5458 20.1345 35.8557 17.0288 35.8557 17.0288C35.8557 17.0288 34.4824 18.7401 32.6655 19.9866C32.095 20.388 31.6725 20.7683 31.3345 21.1064C31.4401 20.8951 31.5457 20.6838 31.6302 20.4514C32.0739 19.3106 32.3063 18.1063 32.3908 16.9021C33.4049 16.1415 35.074 16.9443 36.1303 14.895C37.25 12.7189 35.6655 10.1625 35.6655 10.1625C35.6655 10.1625 35.7711 10.8808 35.2852 11.3668C34.7993 11.8527 33.8908 12.0428 33.0458 13.4795C32.75 13.9865 32.5387 14.6203 32.4119 15.1908C32.4119 14.9795 32.3908 14.7893 32.3697 14.5781C32.3063 13.902 32.1373 13.2471 31.8838 12.6344C31.8626 12.5921 31.8415 12.5499 31.8204 12.4865C33.3415 11.5569 34.6725 9.00052 33.6373 7.01457C32.581 4.98637 30.0457 4.66946 30.0457 4.66946C30.0457 4.66946 31.4401 5.28215 30.8063 7.90191C30.5528 8.97939 30.6584 9.95124 30.8908 10.7329C30.5528 10.2259 30.1725 9.7611 29.7711 9.31743C29.6232 9.16954 29.4753 9.00052 29.3274 8.85263C29.5809 8.09205 29.8767 6.06385 28.4823 5.26102C26.8344 4.24692 26.2428 3.82438 25.9259 2.97929C25.9259 2.97929 25.1442 4.66946 25.3977 6.38076C25.6513 8.11318 27.4893 8.81038 28.4823 8.87376C28.6724 8.87376 28.7781 8.87376 28.9471 8.87376C29.1584 9.08503 29.3485 9.2963 29.5387 9.50757C30.4049 10.4794 31.1232 11.5569 31.588 12.7611C31.757 13.2048 31.8838 13.6696 31.9683 14.1344C31.757 13.6062 31.2922 12.6555 30.4049 11.7259C29.0739 10.2893 28.3555 10.2259 27.0457 10.0991C26.1583 10.0146 25.778 9.82448 25.6301 9.69772C25.609 9.67659 25.5668 9.63433 25.5456 9.61321C25.5456 9.61321 25.9893 10.4372 26.1794 11.3879C26.3696 12.3386 26.8766 13.902 28.5457 14.3034C29.9823 14.6626 31.6091 14.5992 32.0105 14.5992C32.0105 14.5992 32.0105 14.5992 32.0105 14.6203C32.0739 15.2541 32.0739 15.9091 32.0317 16.5429C31.9683 17.8317 31.7359 19.1204 31.2711 20.3035C31.2288 20.4303 31.1654 20.5359 31.1232 20.6416C31.3767 19.4584 31.5035 17.4936 29.9401 16.4795C28.9893 15.8457 26.6865 15.1274 26.6865 15.1274C26.6865 15.1274 26.264 16.395 26.9189 17.8528C27.5738 19.3106 28.6513 19.3106 29.6865 19.9866C30.2358 20.3669 30.595 21.0218 30.764 21.381C30.764 21.4021 30.7429 21.4021 30.7429 21.4233C30.0034 22.6909 28.9048 23.7261 27.595 24.4022C27.4471 24.4867 27.2992 24.5501 27.1724 24.6135C27.8062 23.4515 28.3978 22.4796 27.7006 20.8528C27.2358 19.7753 25.7358 18.0429 25.7358 18.0429C25.7358 18.0429 24.5104 20.874 25.0808 22.2683C25.5456 23.4303 26.4963 24.4022 26.8766 24.7402C26.0949 25.0571 25.271 25.2684 24.447 25.4374C22.9892 25.7121 21.5315 25.9233 20.116 26.3881C18.7216 25.9022 17.2427 25.7121 15.7849 25.4374C14.9609 25.2684 14.137 25.0571 13.3553 24.7402C13.7356 24.3811 14.6652 23.4303 15.1511 22.2683C15.7215 20.874 14.4961 18.0429 14.4961 18.0429C14.4961 18.0429 12.9961 19.7753 12.5313 20.8528C11.8341 22.4796 12.4046 23.4515 13.0595 24.6135C12.9116 24.5501 12.7637 24.4867 12.637 24.4022C11.3271 23.7261 10.2285 22.6909 9.48902 21.4233C9.48902 21.4021 9.4679 21.4021 9.4679 21.381C9.63691 21.0218 9.99607 20.3669 10.5454 19.9866C11.5595 19.2894 12.6581 19.2894 13.313 17.8528C13.968 16.395 13.5454 15.1274 13.5454 15.1274C13.5454 15.1274 11.2426 15.8457 10.2919 16.4795C8.72845 17.5147 8.85521 19.4796 9.10873 20.6416C9.06648 20.5359 9.0031 20.4092 8.96084 20.3035C8.47492 19.1204 8.24252 17.8317 8.20027 16.5429C8.17914 15.9091 8.17914 15.233 8.2214 14.6203C8.2214 14.6203 8.2214 14.6203 8.2214 14.5992C8.62281 14.6203 10.2496 14.6626 11.6862 14.3034C13.3553 13.902 13.8623 12.3386 14.0525 11.3879C14.2426 10.4372 14.6863 9.61321 14.6863 9.61321C14.6652 9.63433 14.6229 9.67659 14.6018 9.69772C14.4539 9.82448 14.0947 10.0146 13.1863 10.0991C11.8764 10.2259 11.1581 10.2893 9.82706 11.7259C8.96084 12.6555 8.49605 13.6062 8.26365 14.1344C8.34816 13.6696 8.47492 13.2048 8.64394 12.7611C9.10873 11.5569 9.82706 10.4794 10.6933 9.50757C10.8834 9.2963 11.0947 9.08503 11.2848 8.87376C11.4327 8.87376 11.5595 8.89489 11.7496 8.87376C12.7426 8.81038 14.5807 8.11318 14.8342 6.38076C15.0455 4.66946 14.2638 2.97929 14.2638 2.97929C13.9468 3.82438 13.3553 4.24692 11.6862 5.21877C10.2919 6.04273 10.5876 8.0498 10.8412 8.81038C10.6933 8.95827 10.5454 9.10616 10.3975 9.27517C9.99607 9.71884 9.61578 10.2048 9.27775 10.6907C9.51015 9.90899 9.61579 8.93714 9.36226 7.85966C8.72845 5.2399 10.1228 4.62721 10.1228 4.62721C10.1228 4.62721 7.58758 4.94412 6.53123 6.97232C5.496 8.95827 6.80588 11.5358 8.34816 12.4442C8.32703 12.4865 8.3059 12.5287 8.28478 12.5921C8.05238 13.2259 7.86223 13.8598 7.79885 14.5358C7.77773 14.7471 7.77773 14.9372 7.7566 15.1485C7.62984 14.5781 7.43969 13.9654 7.12279 13.4372C6.2777 12.0217 5.36923 11.8104 4.88331 11.3245C4.39739 10.8808 4.50302 10.1625 4.50302 10.1625C4.50302 10.1625 2.91849 12.7189 4.03823 14.895C5.09458 16.9443 6.76362 16.1415 7.77773 16.9021C7.86223 18.1063 8.09463 19.3106 8.5383 20.4514C8.62281 20.6627 8.72845 20.8951 8.83408 21.1064C8.51718 20.7683 8.07351 20.3669 7.50307 19.9866C5.70727 18.7401 4.31288 17.0288 4.31288 17.0288C4.31288 17.0288 2.62271 20.1345 4.4819 21.8881C6.29883 23.5994 7.41857 21.6979 9.57353 22.3529C9.93269 22.8388 10.3552 23.3036 10.82 23.705C11.0947 23.9585 11.3905 24.1698 11.6862 24.3811C10.82 24.1064 9.42564 23.7472 8.17914 23.7261C5.51712 23.6839 5.01007 23.2824 5.01007 23.2824C5.01007 23.2824 5.17909 25.9445 7.50307 26.5994C9.17212 27.0853 11.3482 26.1769 12.3834 24.8036C12.9961 25.1416 13.6511 25.4163 14.3271 25.6064C14.9609 25.7966 15.6159 25.9445 16.2708 26.0501C16.9046 26.1769 17.5385 26.3036 18.1723 26.4938C18.4892 26.5783 18.8272 26.6839 19.1441 26.7895C19.1019 26.8107 19.0596 26.8318 19.0174 26.8529V27.9515C19.0385 27.9304 19.0596 27.9093 19.0807 27.8882C19.2286 27.7191 19.4188 27.5924 19.6089 27.4656C19.7568 27.36 19.9258 27.2755 20.0948 27.191C20.2638 27.2755 20.4117 27.36 20.5808 27.4656C20.7709 27.5924 20.9399 27.7191 21.1089 27.8882C21.1301 27.9093 21.1512 27.9304 21.1723 27.9515V26.8529C21.1301 26.8318 21.0878 26.8107 21.0456 26.7895C21.3625 26.6839 21.6794 26.5783 22.0174 26.4938C22.6301 26.3248 23.2639 26.1769 23.9188 26.0501C24.5738 25.9445 25.2287 25.7966 25.8625 25.6064C26.5386 25.3952 27.1724 25.1416 27.8062 24.8036C28.8626 26.1769 31.0176 27.0853 32.6866 26.5994C34.9894 25.9233 35.1585 23.2613 35.1585 23.2613C35.1585 23.2613 34.6514 23.6627 31.9894 23.705C30.7429 23.7261 29.3274 24.0853 28.4823 24.3599C28.7781 24.1487 29.0739 23.9374 29.3485 23.6839C29.8133 23.3036 30.2147 22.8388 30.595 22.3529Z"/>
</mask>
<path d="M30.595 22.3529C32.75 21.6979 33.8697 23.5994 35.6866 21.8881C37.5458 20.1345 35.8557 17.0288 35.8557 17.0288C35.8557 17.0288 34.4824 18.7401 32.6655 19.9866C32.095 20.388 31.6725 20.7683 31.3345 21.1064C31.4401 20.8951 31.5457 20.6838 31.6302 20.4514C32.0739 19.3106 32.3063 18.1063 32.3908 16.9021C33.4049 16.1415 35.074 16.9443 36.1303 14.895C37.25 12.7189 35.6655 10.1625 35.6655 10.1625C35.6655 10.1625 35.7711 10.8808 35.2852 11.3668C34.7993 11.8527 33.8908 12.0428 33.0458 13.4795C32.75 13.9865 32.5387 14.6203 32.4119 15.1908C32.4119 14.9795 32.3908 14.7893 32.3697 14.5781C32.3063 13.902 32.1373 13.2471 31.8838 12.6344C31.8626 12.5921 31.8415 12.5499 31.8204 12.4865C33.3415 11.5569 34.6725 9.00052 33.6373 7.01457C32.581 4.98637 30.0457 4.66946 30.0457 4.66946C30.0457 4.66946 31.4401 5.28215 30.8063 7.90191C30.5528 8.97939 30.6584 9.95124 30.8908 10.7329C30.5528 10.2259 30.1725 9.7611 29.7711 9.31743C29.6232 9.16954 29.4753 9.00052 29.3274 8.85263C29.5809 8.09205 29.8767 6.06385 28.4823 5.26102C26.8344 4.24692 26.2428 3.82438 25.9259 2.97929C25.9259 2.97929 25.1442 4.66946 25.3977 6.38076C25.6513 8.11318 27.4893 8.81038 28.4823 8.87376C28.6724 8.87376 28.7781 8.87376 28.9471 8.87376C29.1584 9.08503 29.3485 9.2963 29.5387 9.50757C30.4049 10.4794 31.1232 11.5569 31.588 12.7611C31.757 13.2048 31.8838 13.6696 31.9683 14.1344C31.757 13.6062 31.2922 12.6555 30.4049 11.7259C29.0739 10.2893 28.3555 10.2259 27.0457 10.0991C26.1583 10.0146 25.778 9.82448 25.6301 9.69772C25.609 9.67659 25.5668 9.63433 25.5456 9.61321C25.5456 9.61321 25.9893 10.4372 26.1794 11.3879C26.3696 12.3386 26.8766 13.902 28.5457 14.3034C29.9823 14.6626 31.6091 14.5992 32.0105 14.5992C32.0105 14.5992 32.0105 14.5992 32.0105 14.6203C32.0739 15.2541 32.0739 15.9091 32.0317 16.5429C31.9683 17.8317 31.7359 19.1204 31.2711 20.3035C31.2288 20.4303 31.1654 20.5359 31.1232 20.6416C31.3767 19.4584 31.5035 17.4936 29.9401 16.4795C28.9893 15.8457 26.6865 15.1274 26.6865 15.1274C26.6865 15.1274 26.264 16.395 26.9189 17.8528C27.5738 19.3106 28.6513 19.3106 29.6865 19.9866C30.2358 20.3669 30.595 21.0218 30.764 21.381C30.764 21.4021 30.7429 21.4021 30.7429 21.4233C30.0034 22.6909 28.9048 23.7261 27.595 24.4022C27.4471 24.4867 27.2992 24.5501 27.1724 24.6135C27.8062 23.4515 28.3978 22.4796 27.7006 20.8528C27.2358 19.7753 25.7358 18.0429 25.7358 18.0429C25.7358 18.0429 24.5104 20.874 25.0808 22.2683C25.5456 23.4303 26.4963 24.4022 26.8766 24.7402C26.0949 25.0571 25.271 25.2684 24.447 25.4374C22.9892 25.7121 21.5315 25.9233 20.116 26.3881C18.7216 25.9022 17.2427 25.7121 15.7849 25.4374C14.9609 25.2684 14.137 25.0571 13.3553 24.7402C13.7356 24.3811 14.6652 23.4303 15.1511 22.2683C15.7215 20.874 14.4961 18.0429 14.4961 18.0429C14.4961 18.0429 12.9961 19.7753 12.5313 20.8528C11.8341 22.4796 12.4046 23.4515 13.0595 24.6135C12.9116 24.5501 12.7637 24.4867 12.637 24.4022C11.3271 23.7261 10.2285 22.6909 9.48902 21.4233C9.48902 21.4021 9.4679 21.4021 9.4679 21.381C9.63691 21.0218 9.99607 20.3669 10.5454 19.9866C11.5595 19.2894 12.6581 19.2894 13.313 17.8528C13.968 16.395 13.5454 15.1274 13.5454 15.1274C13.5454 15.1274 11.2426 15.8457 10.2919 16.4795C8.72845 17.5147 8.85521 19.4796 9.10873 20.6416C9.06648 20.5359 9.0031 20.4092 8.96084 20.3035C8.47492 19.1204 8.24252 17.8317 8.20027 16.5429C8.17914 15.9091 8.17914 15.233 8.2214 14.6203C8.2214 14.6203 8.2214 14.6203 8.2214 14.5992C8.62281 14.6203 10.2496 14.6626 11.6862 14.3034C13.3553 13.902 13.8623 12.3386 14.0525 11.3879C14.2426 10.4372 14.6863 9.61321 14.6863 9.61321C14.6652 9.63433 14.6229 9.67659 14.6018 9.69772C14.4539 9.82448 14.0947 10.0146 13.1863 10.0991C11.8764 10.2259 11.1581 10.2893 9.82706 11.7259C8.96084 12.6555 8.49605 13.6062 8.26365 14.1344C8.34816 13.6696 8.47492 13.2048 8.64394 12.7611C9.10873 11.5569 9.82706 10.4794 10.6933 9.50757C10.8834 9.2963 11.0947 9.08503 11.2848 8.87376C11.4327 8.87376 11.5595 8.89489 11.7496 8.87376C12.7426 8.81038 14.5807 8.11318 14.8342 6.38076C15.0455 4.66946 14.2638 2.97929 14.2638 2.97929C13.9468 3.82438 13.3553 4.24692 11.6862 5.21877C10.2919 6.04273 10.5876 8.0498 10.8412 8.81038C10.6933 8.95827 10.5454 9.10616 10.3975 9.27517C9.99607 9.71884 9.61578 10.2048 9.27775 10.6907C9.51015 9.90899 9.61579 8.93714 9.36226 7.85966C8.72845 5.2399 10.1228 4.62721 10.1228 4.62721C10.1228 4.62721 7.58758 4.94412 6.53123 6.97232C5.496 8.95827 6.80588 11.5358 8.34816 12.4442C8.32703 12.4865 8.3059 12.5287 8.28478 12.5921C8.05238 13.2259 7.86223 13.8598 7.79885 14.5358C7.77773 14.7471 7.77773 14.9372 7.7566 15.1485C7.62984 14.5781 7.43969 13.9654 7.12279 13.4372C6.2777 12.0217 5.36923 11.8104 4.88331 11.3245C4.39739 10.8808 4.50302 10.1625 4.50302 10.1625C4.50302 10.1625 2.91849 12.7189 4.03823 14.895C5.09458 16.9443 6.76362 16.1415 7.77773 16.9021C7.86223 18.1063 8.09463 19.3106 8.5383 20.4514C8.62281 20.6627 8.72845 20.8951 8.83408 21.1064C8.51718 20.7683 8.07351 20.3669 7.50307 19.9866C5.70727 18.7401 4.31288 17.0288 4.31288 17.0288C4.31288 17.0288 2.62271 20.1345 4.4819 21.8881C6.29883 23.5994 7.41857 21.6979 9.57353 22.3529C9.93269 22.8388 10.3552 23.3036 10.82 23.705C11.0947 23.9585 11.3905 24.1698 11.6862 24.3811C10.82 24.1064 9.42564 23.7472 8.17914 23.7261C5.51712 23.6839 5.01007 23.2824 5.01007 23.2824C5.01007 23.2824 5.17909 25.9445 7.50307 26.5994C9.17212 27.0853 11.3482 26.1769 12.3834 24.8036C12.9961 25.1416 13.6511 25.4163 14.3271 25.6064C14.9609 25.7966 15.6159 25.9445 16.2708 26.0501C16.9046 26.1769 17.5385 26.3036 18.1723 26.4938C18.4892 26.5783 18.8272 26.6839 19.1441 26.7895C19.1019 26.8107 19.0596 26.8318 19.0174 26.8529V27.9515C19.0385 27.9304 19.0596 27.9093 19.0807 27.8882C19.2286 27.7191 19.4188 27.5924 19.6089 27.4656C19.7568 27.36 19.9258 27.2755 20.0948 27.191C20.2638 27.2755 20.4117 27.36 20.5808 27.4656C20.7709 27.5924 20.9399 27.7191 21.1089 27.8882C21.1301 27.9093 21.1512 27.9304 21.1723 27.9515V26.8529C21.1301 26.8318 21.0878 26.8107 21.0456 26.7895C21.3625 26.6839 21.6794 26.5783 22.0174 26.4938C22.6301 26.3248 23.2639 26.1769 23.9188 26.0501C24.5738 25.9445 25.2287 25.7966 25.8625 25.6064C26.5386 25.3952 27.1724 25.1416 27.8062 24.8036C28.8626 26.1769 31.0176 27.0853 32.6866 26.5994C34.9894 25.9233 35.1585 23.2613 35.1585 23.2613C35.1585 23.2613 34.6514 23.6627 31.9894 23.705C30.7429 23.7261 29.3274 24.0853 28.4823 24.3599C28.7781 24.1487 29.0739 23.9374 29.3485 23.6839C29.8133 23.3036 30.2147 22.8388 30.595 22.3529Z" fill="white" stroke="#424242" stroke-width="0.447254" mask="url(#path-1-inside-1_745_226)"/>
<path d="M19.6576 20.0981C19.1509 20.0981 18.6976 20.0047 18.2976 19.8181C17.8976 19.6247 17.5676 19.3714 17.3076 19.0581C17.0476 18.7381 16.8676 18.3947 16.7676 18.0281L17.6676 17.7481C17.8076 18.1947 18.0676 18.5481 18.4476 18.8081C18.8342 19.0681 19.2376 19.1981 19.6576 19.1981C19.9376 19.1981 20.1876 19.1414 20.4076 19.0281C20.6342 18.9147 20.8109 18.7714 20.9376 18.5981C21.0642 18.4247 21.1276 18.2514 21.1276 18.0781C21.1276 17.8047 21.0309 17.5581 20.8376 17.3381C20.6509 17.1181 20.3909 16.9714 20.0576 16.8981L18.7976 16.6181C18.2642 16.5047 17.8409 16.2514 17.5276 15.8581C17.2209 15.4581 17.0676 15.0014 17.0676 14.4881C17.0676 14.0947 17.1676 13.7414 17.3676 13.4281C17.5742 13.1081 17.8542 12.8581 18.2076 12.6781C18.5609 12.4981 18.9509 12.4081 19.3776 12.4081C19.8509 12.4081 20.2709 12.4914 20.6376 12.6581C21.0109 12.8247 21.3142 13.0481 21.5476 13.3281C21.7876 13.6014 21.9576 13.8981 22.0576 14.2181L21.1676 14.5381C21.0209 14.1447 20.7776 13.8414 20.4376 13.6281C20.1042 13.4147 19.7542 13.3081 19.3876 13.3081C19.1342 13.3081 18.9076 13.3647 18.7076 13.4781C18.5076 13.5847 18.3509 13.7247 18.2376 13.8981C18.1242 14.0714 18.0676 14.2481 18.0676 14.4281C18.0676 14.7081 18.1676 14.9647 18.3676 15.1981C18.5742 15.4247 18.8309 15.5714 19.1376 15.6381L20.2776 15.8981C20.8776 16.0314 21.3376 16.2847 21.6576 16.6581C21.9776 17.0314 22.1376 17.4781 22.1376 17.9981C22.1376 18.3914 22.0342 18.7481 21.8276 19.0681C21.6209 19.3881 21.3276 19.6414 20.9476 19.8281C20.5742 20.0081 20.1442 20.0981 19.6576 20.0981Z" fill="black"/>
<path d="M35.2057 32.5505L35.1768 32.6099L35.2149 32.6639C35.4113 32.9422 35.6051 33.2179 35.7972 33.4912C36.32 34.2351 36.8307 34.9616 37.3504 35.677C33.359 37.3074 29.0674 37.9657 24.8334 37.6715V30.0152C29.05 30.3059 33.3039 29.6593 37.3048 28.0559C37.2112 28.2596 37.1178 28.4629 37.0246 28.6658C36.423 29.9757 35.8286 31.2702 35.2057 32.5505Z" fill="white" stroke="#424242" stroke-width="0.223627"/>
<path d="M15.3565 37.6723C11.1219 37.9665 6.8296 37.308 2.83771 35.6771C3.10333 35.3024 3.37197 34.9244 3.64354 34.5424C4.07991 33.9284 4.52385 33.3039 4.97498 32.6648L5.01308 32.6108L4.98418 32.5514C4.2643 31.0716 3.56335 29.5729 2.88133 28.0552C6.88341 29.6597 11.1386 30.3068 15.3565 30.016V37.6723Z" fill="white" stroke="#424242" stroke-width="0.223627"/>
<path d="M27.7629 28.8387C25.9671 29.5781 24.6995 29.895 24.6995 29.895V37.7754C24.6995 37.7754 25.9671 37.6064 27.9742 36.698C29.9812 35.8106 30.8263 35.0078 30.8263 35.0078V27.1274C30.8263 27.1274 29.601 28.0781 27.7629 28.8387Z" fill="black"/>
<path d="M12.4255 28.8389C14.2213 29.5783 15.4889 29.8952 15.4889 29.8952V37.7756C15.4889 37.7756 14.2213 37.6066 12.2142 36.6981C10.2071 35.8108 9.36206 35.008 9.36206 35.008V27.1276C9.36206 27.1276 10.5874 28.0783 12.4255 28.8389Z" fill="black"/>
<path d="M9.47546 34.8417V27.2027C12.8853 25.8114 16.4805 25.1056 20.0962 25.1056C23.712 25.1056 27.3072 25.8114 30.717 27.2027V34.8417C27.3058 33.4623 23.7114 32.7624 20.0962 32.7624C16.4811 32.7624 12.8867 33.4623 9.47546 34.8417Z" fill="white" stroke="#424242" stroke-width="0.223627"/>
<path d="M20.2305 26.4937L20.7584 28.0312H22.4668L21.0847 28.9815L21.6126 30.519L20.2305 29.5688L18.8484 30.519L19.3764 28.9815L17.9943 28.0312H19.7026L20.2305 26.4937Z" fill="black"/>
</svg>
