<svg width="86" height="86" viewBox="0 0 86 86" fill="none" xmlns="http://www.w3.org/2000/svg">
<path d="M37.6979 67.0386L18.9971 20.5051L42.6169 0.32894L66.2367 20.5051L47.5359 67.0386H45.2396H44.1905H41.0433H39.9942H37.6979Z" fill="white" stroke="#424242" stroke-width="0.5"/>
<path d="M42.9199 45.0001L44.1003 48.4378H47.9199L44.8298 50.5624L46.0101 54.0001L42.9199 51.8755L39.8298 54.0001L41.0101 50.5624L37.9199 48.4378H41.7396L42.9199 45.0001Z" fill="black"/>
<path d="M43.3645 37.5899C42.3511 37.5899 41.4445 37.4032 40.6445 37.0299C39.8445 36.6432 39.1845 36.1366 38.6645 35.5099C38.1445 34.8699 37.7845 34.1832 37.5845 33.4499L39.3845 32.8899C39.6645 33.7832 40.1845 34.4899 40.9445 35.0099C41.7178 35.5299 42.5245 35.7899 43.3645 35.7899C43.9245 35.7899 44.4245 35.6766 44.8645 35.4499C45.3178 35.2232 45.6711 34.9366 45.9245 34.5899C46.1778 34.2432 46.3045 33.8966 46.3045 33.5499C46.3045 33.0032 46.1111 32.5099 45.7245 32.0699C45.3511 31.6299 44.8311 31.3366 44.1645 31.1899L41.6445 30.6299C40.5778 30.4032 39.7311 29.8966 39.1045 29.1099C38.4911 28.3099 38.1845 27.3966 38.1845 26.3699C38.1845 25.5832 38.3845 24.8766 38.7845 24.2499C39.1978 23.6099 39.7578 23.1099 40.4645 22.7499C41.1711 22.3899 41.9511 22.2099 42.8045 22.2099C43.7511 22.2099 44.5911 22.3766 45.3245 22.7099C46.0711 23.0432 46.6778 23.4899 47.1445 24.0499C47.6245 24.5966 47.9645 25.1899 48.1645 25.8299L46.3845 26.4699C46.0911 25.6832 45.6045 25.0766 44.9245 24.6499C44.2578 24.2232 43.5578 24.0099 42.8245 24.0099C42.3178 24.0099 41.8645 24.1232 41.4645 24.3499C41.0645 24.5632 40.7511 24.8432 40.5245 25.1899C40.2978 25.5366 40.1845 25.8899 40.1845 26.2499C40.1845 26.8099 40.3845 27.3232 40.7845 27.7899C41.1978 28.2432 41.7111 28.5366 42.3245 28.6699L44.6045 29.1899C45.8045 29.4566 46.7245 29.9632 47.3645 30.7099C48.0045 31.4566 48.3245 32.3499 48.3245 33.3899C48.3245 34.1766 48.1178 34.8899 47.7045 35.5299C47.2911 36.1699 46.7045 36.6766 45.9445 37.0499C45.1978 37.4099 44.3378 37.5899 43.3645 37.5899Z" fill="black"/>
<path d="M40.6445 37.0299L40.5471 37.2313L40.5499 37.2325L40.6445 37.0299ZM38.6645 35.5099L38.4909 35.6509L38.4924 35.6527L38.6645 35.5099ZM37.5845 33.4499L37.518 33.2364L37.3119 33.3005L37.3687 33.5087L37.5845 33.4499ZM39.3845 32.8899L39.5978 32.823L39.5311 32.6101L39.318 32.6764L39.3845 32.8899ZM40.9445 35.0099L40.8182 35.1945L40.8197 35.1955L40.9445 35.0099ZM44.8645 35.4499L44.7644 35.2499L44.762 35.2511L44.8645 35.4499ZM45.9245 34.5899L45.7439 34.458L45.7439 34.458L45.9245 34.5899ZM45.7245 32.0699L45.5539 32.2146L45.5565 32.2175L45.7245 32.0699ZM44.1645 31.1899L44.1159 31.4082L44.1164 31.4083L44.1645 31.1899ZM41.6445 30.6299L41.693 30.4116L41.6909 30.4112L41.6445 30.6299ZM39.1045 29.1099L38.927 29.246L38.9295 29.2492L39.1045 29.1099ZM38.7845 24.2499L38.5966 24.1286L38.596 24.1296L38.7845 24.2499ZM45.3245 22.7099L45.2319 22.9135L45.2333 22.9141L45.3245 22.7099ZM47.1445 24.0499L46.9726 24.1931L46.9764 24.1974L47.1445 24.0499ZM48.1645 25.8299L48.2401 26.0403L48.4418 25.9678L48.3779 25.7632L48.1645 25.8299ZM46.3845 26.4699L46.1749 26.548L46.2521 26.7551L46.4601 26.6803L46.3845 26.4699ZM44.9245 24.6499L44.8039 24.8383L44.8056 24.8393L44.9245 24.6499ZM41.4645 24.3499L41.5697 24.5473L41.5747 24.5445L41.4645 24.3499ZM40.5245 25.1899L40.3373 25.0675L40.3373 25.0675L40.5245 25.1899ZM40.7845 27.7899L40.6146 27.9355L40.6192 27.9406L40.7845 27.7899ZM42.3245 28.6699L42.3742 28.4519L42.372 28.4514L42.3245 28.6699ZM44.6045 29.1899L44.5547 29.4079L44.5559 29.4082L44.6045 29.1899ZM47.3645 30.7099L47.5342 30.5644L47.5342 30.5644L47.3645 30.7099ZM47.7045 35.5299L47.8923 35.6512L47.8923 35.6512L47.7045 35.5299ZM45.9445 37.0499L46.0416 37.2513L46.0431 37.2506L45.9445 37.0499ZM43.3645 37.3663C42.379 37.3663 41.5053 37.1849 40.739 36.8272L40.5499 37.2325C41.3836 37.6216 42.3233 37.8135 43.3645 37.8135V37.3663ZM40.7418 36.8286C39.9679 36.4545 39.3343 35.9669 38.8366 35.3671L38.4924 35.6527C39.0346 36.3062 39.721 36.8319 40.5471 37.2312L40.7418 36.8286ZM38.838 35.3689C38.336 34.751 37.9913 34.0919 37.8002 33.3911L37.3687 33.5087C37.5776 34.2746 37.953 34.9888 38.4909 35.6509L38.838 35.3689ZM37.6509 33.6634L39.4509 33.1034L39.318 32.6764L37.518 33.2364L37.6509 33.6634ZM39.1711 32.9568C39.4658 33.8971 40.016 34.6456 40.8182 35.1945L41.0707 34.8253C40.3529 34.3342 39.8631 33.6693 39.5978 32.823L39.1711 32.9568ZM40.8197 35.1955C41.6257 35.7375 42.4752 36.0135 43.3645 36.0135V35.5663C42.5737 35.5663 41.8099 35.3223 41.0692 34.8243L40.8197 35.1955ZM43.3645 36.0135C43.9554 36.0135 44.4912 35.8937 44.9669 35.6487L44.762 35.2511C44.3577 35.4594 43.8936 35.5663 43.3645 35.5663V36.0135ZM44.9645 35.6499C45.444 35.4102 45.8272 35.1021 46.105 34.7218L45.7439 34.458C45.5151 34.7711 45.1916 35.0363 44.7644 35.2499L44.9645 35.6499ZM46.105 34.7218C46.3796 34.3461 46.5281 33.9543 46.5281 33.5499H46.0808C46.0808 33.8388 45.976 34.1403 45.7439 34.458L46.105 34.7218ZM46.5281 33.5499C46.5281 32.9448 46.3122 32.3999 45.8924 31.9223L45.5565 32.2175C45.9101 32.6199 46.0808 33.0616 46.0808 33.5499H46.5281ZM45.895 31.9252C45.4845 31.4414 44.9179 31.1267 44.2125 30.9715L44.1164 31.4083C44.7443 31.5464 45.2178 31.8184 45.5539 32.2146L45.895 31.9252ZM44.213 30.9716L41.693 30.4116L41.5959 30.8482L44.1159 31.4082L44.213 30.9716ZM41.6909 30.4112C40.6704 30.1943 39.8709 29.7131 39.2794 28.9706L38.9295 29.2492C39.5913 30.08 40.4852 30.6122 41.598 30.8486L41.6909 30.4112ZM39.2819 28.9738C38.6991 28.2136 38.4081 27.3483 38.4081 26.3699H37.9608C37.9608 27.4448 38.2831 28.4061 38.927 29.246L39.2819 28.9738ZM38.4081 26.3699C38.4081 25.6233 38.5973 24.9588 38.973 24.3702L38.596 24.1296C38.1717 24.7943 37.9608 25.5432 37.9608 26.3699H38.4081ZM38.9723 24.3712C39.3633 23.7657 39.893 23.292 40.566 22.9492L40.3629 22.5506C39.6226 22.9278 39.0322 23.454 38.5966 24.1286L38.9723 24.3712ZM40.566 22.9492C41.2388 22.6064 41.9837 22.4335 42.8045 22.4335V21.9863C41.9186 21.9863 41.1034 22.1734 40.3629 22.5506L40.566 22.9492ZM42.8045 22.4335C43.7247 22.4335 44.5323 22.5955 45.2319 22.9135L45.417 22.5063C44.65 22.1577 43.7775 21.9863 42.8045 21.9863V22.4335ZM45.2333 22.9141C45.9526 23.2352 46.5304 23.6623 46.9727 24.1931L47.3163 23.9067C46.8252 23.3175 46.1896 22.8512 45.4156 22.5057L45.2333 22.9141ZM46.9764 24.1974C47.4376 24.7226 47.7611 25.2889 47.951 25.8966L48.3779 25.7632C48.1678 25.0909 47.8113 24.4705 47.3125 23.9023L46.9764 24.1974ZM48.0888 25.6195L46.3088 26.2595L46.4601 26.6803L48.2401 26.0403L48.0888 25.6195ZM46.594 26.3918C46.2843 25.5613 45.767 24.9145 45.0433 24.4605L44.8056 24.8393C45.442 25.2386 45.8979 25.8051 46.1749 26.548L46.594 26.3918ZM45.045 24.4615C44.3453 24.0137 43.6039 23.7863 42.8245 23.7863V24.2335C43.5117 24.2335 44.1703 24.4327 44.8039 24.8382L45.045 24.4615ZM42.8245 23.7863C42.2832 23.7863 41.7912 23.9077 41.3542 24.1553L41.5747 24.5445C41.9377 24.3387 42.3524 24.2335 42.8245 24.2335V23.7863ZM41.3592 24.1526C40.9293 24.3819 40.5864 24.6865 40.3373 25.0675L40.7116 25.3123C40.9158 25 41.1997 24.7446 41.5697 24.5472L41.3592 24.1526ZM40.3373 25.0675C40.0905 25.4449 39.9608 25.8402 39.9608 26.2499H40.4081C40.4081 25.9396 40.5051 25.6282 40.7116 25.3123L40.3373 25.0675ZM39.9608 26.2499C39.9608 26.8686 40.1836 27.4325 40.6147 27.9354L40.9542 27.6444C40.5853 27.214 40.4081 26.7512 40.4081 26.2499H39.9608ZM40.6192 27.9406C41.0646 28.429 41.6194 28.7455 42.277 28.8884L42.372 28.4514C41.8028 28.3277 41.331 28.0574 40.9497 27.6392L40.6192 27.9406ZM42.2747 28.8879L44.5547 29.4079L44.6542 28.9719L42.3742 28.4519L42.2747 28.8879ZM44.5559 29.4082C45.7207 29.667 46.5933 30.1538 47.1947 30.8554L47.5342 30.5644C46.8556 29.7726 45.8882 29.2461 44.653 28.9716L44.5559 29.4082ZM47.1947 30.8554C47.7978 31.5591 48.1008 32.3999 48.1008 33.3899H48.5481C48.5481 32.2998 48.2111 31.354 47.5342 30.5644L47.1947 30.8554ZM48.1008 33.3899C48.1008 34.135 47.9058 34.806 47.5166 35.4086L47.8923 35.6512C48.3298 34.9738 48.5481 34.2181 48.5481 33.3899H48.1008ZM47.5166 35.4086C47.1277 36.0108 46.5736 36.4917 45.8459 36.8492L46.0431 37.2506C46.8353 36.8614 47.4546 36.329 47.8923 35.6512L47.5166 35.4086ZM45.8473 36.8485C45.1358 37.1915 44.31 37.3663 43.3645 37.3663V37.8135C44.3656 37.8135 45.2598 37.6283 46.0416 37.2513L45.8473 36.8485Z" fill="black"/>
<path d="M30.8406 67.2996L11.8976 39.6857L14.6048 32.9108L21.774 34.206L36.3577 67.2996H34.8527H32.9119H30.8406Z" fill="white" stroke="#424242" stroke-width="0.5"/>
<path d="M48.8221 67.2996L63.4057 34.2062L70.6273 32.9105L73.3346 39.6857L54.3916 67.2996H52.3203H50.3795H48.8221Z" fill="white" stroke="#424242" stroke-width="0.5"/>
<path d="M24.9991 69.3286H60.234V78.0698H24.9991V69.3286Z" fill="white" stroke="#424242" stroke-width="0.223627"/>
<path d="M63.5457 78.1814H21.6879L16.5474 80.5269H68.6861L63.5457 78.1814Z" fill="black"/>
<path d="M55.4677 66.7673H29.7655L24.8873 69.217H60.3458L55.4677 66.7673Z" fill="black"/>
<path d="M16.7974 80.7771H68.4361V85.7499H16.7974V80.7771Z" fill="white" stroke="#424242" stroke-width="0.5"/>
</svg>
