<svg width="40" height="40" viewBox="0 0 40 40" fill="none" xmlns="http://www.w3.org/2000/svg">
<path d="M19.4195 31.2152L19.1128 31.363H19.1057L19.1008 31.3638C19.0992 31.3635 19.0965 31.3628 19.0922 31.3613C19.0808 31.3572 19.0648 31.3492 19.0441 31.3357C19.0027 31.3088 18.9545 31.268 18.9049 31.2202C18.8075 31.1263 18.7173 31.0181 18.6829 30.9739C17.6777 29.5678 16.1982 28.2808 14.935 27.4309C13.5258 26.4642 11.9048 25.7754 10.2899 25.226L9.96139 25.0903L9.96172 25.0895L9.94839 25.0858L9.8023 25.0456L10.7689 23.6587L10.7689 23.6587L10.7693 23.6581L12.1674 21.6256L12.1676 21.6253L13.1388 20.2214C13.6106 20.6465 14.0218 21.161 14.426 21.6668C14.5459 21.8168 14.6653 21.9661 14.7854 22.112C16.2979 24.0025 17.6418 26.0485 18.5607 28.3191L18.5609 28.3196C18.9504 29.2689 19.2731 30.1968 19.5508 31.145L19.4195 31.2152Z" fill="white" stroke="#424242" stroke-width="0.223627"/>
<path d="M29.783 23.6809L29.7832 23.6812L30.7269 25.0454L30.5802 25.0858L30.5801 25.0856L30.5735 25.0879L30.2416 25.2021L30.2407 25.2024C28.6248 25.7749 27.0275 26.4637 25.5949 27.4071L25.5949 27.4071L25.5939 27.4077C24.3295 28.2584 22.8496 29.569 21.8448 30.9523L21.8399 30.959L21.8361 30.9665C21.83 30.9781 21.8099 31.0075 21.7749 31.05C21.7417 31.0904 21.6998 31.1369 21.655 31.1813C21.61 31.2261 21.5641 31.2669 21.5227 31.2971C21.4851 31.3246 21.4605 31.3363 21.4489 31.3401H21.4488H21.4487H21.4486H21.4486H21.4485H21.4484H21.4483H21.4482H21.4481H21.448H21.4479H21.4478H21.4478H21.4477H21.4476H21.4475H21.4474H21.4473H21.4472H21.4471H21.4471H21.447H21.4469H21.4468H21.4467H21.4466H21.4465H21.4465H21.4464H21.4463H21.4462H21.4461H21.446H21.446H21.4459H21.4458H21.4457H21.4456H21.4455H21.4455H21.4454H21.4453H21.4452H21.4451H21.4451H21.445H21.4449H21.4448H21.4447H21.4447H21.4446H21.4445H21.4444H21.4443H21.4443H21.4442H21.4441H21.444H21.4439H21.4439H21.4438H21.4437H21.4436H21.4436H21.4435H21.4434H21.4433H21.4433H21.4432H21.4431H21.443H21.443H21.4429H21.4428H21.4427H21.4427H21.4426H21.4425H21.4424H21.4424H21.4423H21.4422H21.4421H21.4421H21.442H21.4419H21.4418H21.4418H21.4417H21.4416H21.4415H21.4415H21.4414H21.4413H21.4413H21.4412H21.4411H21.441H21.441H21.4409H21.4408H21.4408H21.4407H21.4406H21.4405H21.4405H21.4404H21.4403H21.4403H21.4402H21.4401H21.44H21.44H21.4399H21.4398H21.4398H21.4397H21.4396H21.4395H21.4395H21.4394H21.4393H21.4393H21.4392H21.4391H21.4391H21.439H21.4389H21.4388H21.4388H21.4387H21.4386H21.4386H21.4385H21.4384H21.4384H21.4383H21.4382H21.4382H21.4381H21.438H21.4379H21.4379H21.4378H21.4377H21.4377H21.4376L21.1528 31.2134L21.0026 31.1411C21.2802 30.1924 21.6025 29.2453 21.991 28.3204L21.9913 28.3198C22.9103 26.0943 24.2546 24.0477 25.7677 22.1339C25.8381 22.0453 25.9083 21.9563 25.9786 21.8672C26.4298 21.2953 26.8842 20.7194 27.4134 20.2442L28.3846 21.6481L28.3848 21.6484L29.783 23.6809Z" fill="white" stroke="#424242" stroke-width="0.223627"/>
<path d="M18.7826 15.2099H22.0059H23.8593L20.564 31.0661H20.4179H20.0861H19.9875L16.6921 15.2099H18.7826Z" fill="white" stroke="#424242" stroke-width="0.223627"/>
<path d="M36.1269 20.5281L36.0988 20.5823L36.1291 20.6352L38.8588 25.3922L33.2796 24.5802L33.223 24.572L33.1832 24.6131L29.3306 28.5895L28.3965 23.21L28.3863 23.1516L28.3324 23.1272L23.2385 20.8261L26.2977 19.3093L26.4979 19.21L26.4878 19.2049L28.2416 18.327L28.295 18.3002L28.3024 18.241L28.9858 12.841L33.0207 16.6636L33.0621 16.7028L33.1181 16.6924L38.6521 15.6608L36.1269 20.5281ZM4.42395 20.5281L1.89868 15.6608L7.43273 16.6924L7.48875 16.7028L7.53012 16.6636L11.565 12.841L12.2484 18.241L12.2559 18.3002L12.3093 18.327L14.063 19.2049L14.0529 19.21L14.2531 19.3093L17.3123 20.8261L12.2185 23.1272L12.1645 23.1516L12.1543 23.21L11.2202 28.5895L7.36762 24.6131L7.32782 24.572L7.27121 24.5802L1.692 25.3922L4.42168 20.6352L4.45207 20.5823L4.42395 20.5281ZM20.225 16.0943L14.3084 19.081L15.432 12.7419L15.4426 12.6823L15.3985 12.6409L10.615 8.14121L17.2335 7.21426L17.2911 7.20619L17.3176 7.15439L20.2754 1.36501L23.2333 7.15439L23.2597 7.20619L23.3173 7.21426L29.9359 8.14121L25.1523 12.6409L25.1083 12.6823L25.1188 12.7419L26.2424 19.081L20.3258 16.0943L20.2754 16.0689L20.225 16.0943Z" fill="white" stroke="#424242" stroke-width="0.223627"/>
<path d="M18.5563 8.19611H21.0603C21.5937 8.19611 22.015 8.33745 22.3243 8.62011C22.639 8.90278 22.7963 9.28145 22.7963 9.75611C22.7963 10.0068 22.743 10.2334 22.6363 10.4361C22.535 10.6388 22.3857 10.8094 22.1883 10.9481C22.4657 11.1028 22.6763 11.3054 22.8203 11.5561C22.9643 11.8068 23.0363 12.0841 23.0363 12.3881C23.0363 12.9374 22.8603 13.3694 22.5083 13.6841C22.1563 13.9988 21.6763 14.1561 21.0683 14.1561H18.5563V8.19611ZM21.1003 13.4361C21.447 13.4361 21.7243 13.3428 21.9323 13.1561C22.1403 12.9694 22.2443 12.7161 22.2443 12.3961C22.2443 12.0814 22.1403 11.8281 21.9323 11.6361C21.7243 11.4441 21.447 11.3481 21.1003 11.3481H19.3403V13.4361H21.1003ZM21.0443 10.6441C21.3323 10.6441 21.5643 10.5614 21.7403 10.3961C21.9163 10.2308 22.0043 10.0148 22.0043 9.74811C22.0043 9.48145 21.9163 9.27611 21.7403 9.13211C21.5697 8.98278 21.3377 8.90811 21.0443 8.90811H19.3403V10.6441H21.0443Z" fill="black"/>
<path d="M18.5563 8.19611V7.97249H18.3327V8.19611H18.5563ZM22.3243 8.62011L22.1735 8.7852L22.1749 8.78647L22.3243 8.62011ZM22.6363 10.4361L22.4384 10.3319L22.4363 10.3361L22.6363 10.4361ZM22.1883 10.9481L22.0598 10.7651L21.7683 10.9699L22.0794 11.1434L22.1883 10.9481ZM22.8203 11.5561L23.0142 11.4447L23.0142 11.4447L22.8203 11.5561ZM18.5563 14.1561H18.3327V14.3797H18.5563V14.1561ZM21.9323 13.1561L21.783 12.9897L21.783 12.9897L21.9323 13.1561ZM21.9323 11.6361L21.7807 11.8004L21.7807 11.8004L21.9323 11.6361ZM19.3403 11.3481V11.1245H19.1167V11.3481H19.3403ZM19.3403 13.4361H19.1167V13.6597H19.3403V13.4361ZM21.7403 10.3961L21.8934 10.5591L21.8934 10.5591L21.7403 10.3961ZM21.7403 9.13211L21.593 9.3005L21.5987 9.30519L21.7403 9.13211ZM19.3403 8.90811V8.68449H19.1167V8.90811H19.3403ZM19.3403 10.6441H19.1167V10.8677H19.3403V10.6441ZM18.5563 8.41974H21.0603V7.97249H18.5563V8.41974ZM21.0603 8.41974C21.5536 8.41974 21.9157 8.54963 22.1735 8.7852L22.4752 8.45503C22.1143 8.12527 21.6337 7.97249 21.0603 7.97249V8.41974ZM22.1749 8.78647C22.4363 9.02129 22.5727 9.33629 22.5727 9.75611H23.02C23.02 9.2266 22.8417 8.78427 22.4738 8.45375L22.1749 8.78647ZM22.5727 9.75611C22.5727 9.97399 22.5266 10.1644 22.4384 10.332L22.8342 10.5403C22.9594 10.3025 23.02 10.0396 23.02 9.75611H22.5727ZM22.4363 10.3361C22.3526 10.5035 22.2288 10.6464 22.0598 10.7651L22.3169 11.1311C22.5425 10.9725 22.7174 10.7741 22.8364 10.5361L22.4363 10.3361ZM22.0794 11.1434C22.3249 11.2803 22.5046 11.4554 22.6264 11.6675L23.0142 11.4447C22.8481 11.1555 22.6064 10.9252 22.2973 10.7528L22.0794 11.1434ZM22.6264 11.6675C22.7499 11.8825 22.8127 12.1211 22.8127 12.3881H23.26C23.26 12.0471 23.1787 11.7311 23.0142 11.4447L22.6264 11.6675ZM22.8127 12.3881C22.8127 12.8852 22.6559 13.2522 22.3593 13.5174L22.6574 13.8508C23.0647 13.4867 23.26 12.9896 23.26 12.3881H22.8127ZM22.3593 13.5174C22.059 13.7858 21.6376 13.9325 21.0683 13.9325V14.3797C21.715 14.3797 22.2537 14.2117 22.6574 13.8508L22.3593 13.5174ZM21.0683 13.9325H18.5563V14.3797H21.0683V13.9325ZM18.78 14.1561V8.19611H18.3327V14.1561H18.78ZM21.1003 13.6597C21.4883 13.6597 21.8234 13.5543 22.0817 13.3225L21.783 12.9897C21.6252 13.1312 21.4057 13.2125 21.1003 13.2125V13.6597ZM22.0817 13.3225C22.344 13.0871 22.468 12.7694 22.468 12.3961H22.0207C22.0207 12.6628 21.9366 12.8518 21.783 12.9897L22.0817 13.3225ZM22.468 12.3961C22.468 12.0268 22.3433 11.7111 22.084 11.4718L21.7807 11.8004C21.9374 11.9451 22.0207 12.1361 22.0207 12.3961H22.468ZM22.084 11.4718C21.8259 11.2335 21.4899 11.1245 21.1003 11.1245V11.5717C21.4041 11.5717 21.6228 11.6547 21.7807 11.8004L22.084 11.4718ZM21.1003 11.1245H19.3403V11.5717H21.1003V11.1245ZM19.1167 11.3481V13.4361H19.564V11.3481H19.1167ZM19.3403 13.6597H21.1003V13.2125H19.3403V13.6597ZM21.0443 10.8677C21.3776 10.8677 21.6682 10.7707 21.8934 10.5591L21.5872 10.2331C21.4605 10.3522 21.2871 10.4205 21.0443 10.4205V10.8677ZM21.8934 10.5591C22.1194 10.3468 22.228 10.0694 22.228 9.74811H21.7807C21.7807 9.96018 21.7133 10.1147 21.5872 10.2331L21.8934 10.5591ZM22.228 9.74811C22.228 9.42728 22.1191 9.15306 21.8819 8.95903L21.5987 9.30519C21.7136 9.39917 21.7807 9.53561 21.7807 9.74811H22.228ZM21.8876 8.96382C21.6654 8.76938 21.3756 8.68449 21.0443 8.68449V9.13174C21.2998 9.13174 21.4739 9.19617 21.5931 9.30041L21.8876 8.96382ZM21.0443 8.68449H19.3403V9.13174H21.0443V8.68449ZM19.1167 8.90811V10.6441H19.564V8.90811H19.1167ZM19.3403 10.8677H21.0443V10.4205H19.3403V10.8677Z" fill="black"/>
<path d="M14.4149 35.9996V32.2261H26.1365V35.9996H14.4149Z" fill="white" stroke="black" stroke-width="0.223627"/>
<path d="M27.3382 36.1116H13.2124L11.506 37.1394H29.0447L27.3382 36.1116Z" fill="black"/>
<path d="M24.5893 31.0179H15.9385L14.3031 32.1143H26.2484L24.5893 31.0179Z" fill="black"/>
<path d="M11.6178 39.4714V37.2511H28.9565V39.4714H11.6178Z" fill="white" stroke="black" stroke-width="0.223627"/>
</svg>
